<svg width="351" height="108" viewBox="0 0 351 108" fill="none" xmlns="http://www.w3.org/2000/svg">
<path fill-rule="evenodd" clip-rule="evenodd" d="M54.4487 108C84.2721 108 108.449 83.8234 108.449 54C108.449 24.1766 84.2721 0 54.4487 0C24.6254 0 0.44873 24.1766 0.44873 54C0.44873 83.8234 24.6254 108 54.4487 108ZM58.1061 25.6228C62.5647 23.6187 67.6874 23.7212 72.0622 25.9022C78.5348 29.1291 78.3998 38.4104 71.8362 41.4477L57.2742 48.1862C55.8837 48.8296 54.2751 48.8 52.9092 48.106L39.2197 41.1495C37.7966 40.4263 36.0568 40.9937 35.3336 42.4168C34.6105 43.8399 35.1779 45.5797 36.6009 46.3029L52.4534 54.3585C54.0325 55.161 55.8924 55.1952 57.4999 54.4513L74.2638 46.6939C85.2268 41.6208 85.4522 26.1185 74.6413 20.7289C68.7151 17.7744 61.7758 17.6355 55.7361 20.3504L25.9502 33.7393C23.8746 34.6722 22.5396 36.7361 22.5396 39.0117V48.5216C22.5396 50.7136 23.7793 52.717 25.7411 53.695L52.4341 67.0025C54.0582 67.8122 55.9682 67.8122 57.5923 67.0025L79.0689 56.2956C80.2813 55.6912 81.7062 56.573 81.7062 57.9277C81.7062 58.6192 81.3151 59.2512 80.6962 59.5597L57.244 71.2516C55.8393 71.9519 54.1871 71.9519 52.7824 71.2516L30.8993 60.342C27.0562 58.4261 22.5396 61.2211 22.5396 65.5154V70.6443C22.5396 72.8363 23.7793 74.8397 25.7411 75.8177L52.4439 89.1301C54.0569 89.9342 55.9527 89.94 57.5706 89.1457L78.0122 79.1096C79.4451 78.4061 80.0364 76.6742 79.3329 75.2413C78.6294 73.8084 76.8975 73.2171 75.4646 73.9206L57.2435 82.8665C55.8441 83.5535 54.2043 83.5485 52.8091 82.853L29.5913 71.278C28.8124 70.8897 28.3202 70.0943 28.3202 69.224C28.3202 67.5191 30.1134 66.4094 31.6392 67.1701L52.4341 77.5371C54.0582 78.3468 55.9682 78.3468 57.5923 77.5371L84.2853 64.2296C86.247 63.2516 87.4868 61.2482 87.4868 59.0562V54.9808C87.4868 50.6865 82.9702 47.8915 79.1271 49.8074L57.244 60.717C55.8393 61.4173 54.1871 61.4173 52.7824 60.717L31.0894 49.9022C29.3926 49.0563 28.3202 47.3234 28.3202 45.4274V42.2461C28.3202 40.2778 29.475 38.4927 31.2703 37.6857L58.1061 25.6228Z" fill="#46A758"/>
<path d="M142.198 38.5151V50.0276H157.657V57.3298H142.198V69.5002H159.631V76.9997H132.988V31.0156H159.631V38.5151H142.198Z" fill="#46A758"/>
<path d="M174.579 45.8831C175.763 44.1288 177.386 42.7035 179.447 41.6071C181.553 40.5106 183.943 39.9624 186.618 39.9624C189.732 39.9624 192.539 40.7299 195.039 42.2649C197.582 43.7999 199.578 45.9928 201.025 48.8435C202.516 51.6503 203.262 54.9177 203.262 58.6455C203.262 62.3734 202.516 65.6846 201.025 68.5792C199.578 71.4299 197.582 73.6447 195.039 75.2235C192.539 76.8024 189.732 77.5918 186.618 77.5918C183.899 77.5918 181.509 77.0655 179.447 76.013C177.43 74.9165 175.807 73.5131 174.579 71.8027V76.9997H165.369V28.3184H174.579V45.8831ZM193.854 58.6455C193.854 56.4527 193.394 54.5668 192.473 52.988C191.596 51.3653 190.412 50.1373 188.92 49.304C187.473 48.4707 185.894 48.0541 184.184 48.0541C182.517 48.0541 180.938 48.4926 179.447 49.3698C178 50.2031 176.816 51.431 175.895 53.0538C175.018 54.6765 174.579 56.5843 174.579 58.7771C174.579 60.97 175.018 62.8778 175.895 64.5005C176.816 66.1232 178 67.3731 179.447 68.2502C180.938 69.0835 182.517 69.5002 184.184 69.5002C185.894 69.5002 187.473 69.0616 188.92 68.1845C190.412 67.3073 191.596 66.0574 192.473 64.4347C193.394 62.812 193.854 60.8823 193.854 58.6455Z" fill="#46A758"/>
<path d="M223.506 77.5918C219.998 77.5918 216.84 76.8243 214.033 75.2893C211.226 73.7105 209.011 71.4957 207.389 68.645C205.81 65.7943 205.021 62.505 205.021 58.7771C205.021 55.0493 205.832 51.76 207.455 48.9093C209.121 46.0586 211.38 43.8657 214.23 42.3307C217.081 40.7518 220.261 39.9624 223.769 39.9624C227.278 39.9624 230.458 40.7518 233.308 42.3307C236.159 43.8657 238.396 46.0586 240.018 48.9093C241.685 51.76 242.518 55.0493 242.518 58.7771C242.518 62.505 241.663 65.7943 239.953 68.645C238.286 71.4957 236.006 73.7105 233.111 75.2893C230.26 76.8243 227.059 77.5918 223.506 77.5918ZM223.506 69.566C225.173 69.566 226.73 69.1712 228.177 68.3818C229.668 67.5485 230.852 66.3205 231.729 64.6978C232.607 63.0751 233.045 61.1015 233.045 58.7771C233.045 55.3124 232.124 52.659 230.282 50.817C228.484 48.9312 226.269 47.9883 223.638 47.9883C221.006 47.9883 218.792 48.9312 216.993 50.817C215.239 52.659 214.362 55.3124 214.362 58.7771C214.362 62.2418 215.217 64.9171 216.928 66.803C218.682 68.645 220.875 69.566 223.506 69.566Z" fill="#46A758"/>
<path d="M262.826 77.5918C259.317 77.5918 256.16 76.8243 253.353 75.2893C250.546 73.7105 248.331 71.4957 246.709 68.645C245.13 65.7943 244.34 62.505 244.34 58.7771C244.34 55.0493 245.152 51.76 246.774 48.9093C248.441 46.0586 250.7 43.8657 253.55 42.3307C256.401 40.7518 259.581 39.9624 263.089 39.9624C266.598 39.9624 269.777 40.7518 272.628 42.3307C275.479 43.8657 277.716 46.0586 279.338 48.9093C281.005 51.76 281.838 55.0493 281.838 58.7771C281.838 62.505 280.983 65.7943 279.272 68.645C277.606 71.4957 275.325 73.7105 272.431 75.2893C269.58 76.8243 266.378 77.5918 262.826 77.5918ZM262.826 69.566C264.493 69.566 266.05 69.1712 267.497 68.3818C268.988 67.5485 270.172 66.3205 271.049 64.6978C271.926 63.0751 272.365 61.1015 272.365 58.7771C272.365 55.3124 271.444 52.659 269.602 50.817C267.804 48.9312 265.589 47.9883 262.958 47.9883C260.326 47.9883 258.111 48.9312 256.313 50.817C254.559 52.659 253.682 55.3124 253.682 58.7771C253.682 62.2418 254.537 64.9171 256.247 66.803C258.002 68.645 260.195 69.566 262.826 69.566Z" fill="#46A758"/>
<path d="M307.54 76.9997L295.173 61.4743V76.9997H285.963V28.3184H295.173V56.0141L307.409 40.5545H319.382L303.33 58.8429L319.513 76.9997H307.54Z" fill="#46A758"/>
<path d="M335.695 77.5918C332.713 77.5918 330.038 77.0655 327.67 76.013C325.301 74.9165 323.415 73.4473 322.012 71.6053C320.652 69.7633 319.907 67.724 319.775 65.4872H329.051C329.227 66.8907 329.906 68.0529 331.09 68.9739C332.318 69.8949 333.832 70.3554 335.63 70.3554C337.384 70.3554 338.744 70.0045 339.708 69.3028C340.717 68.6011 341.221 67.702 341.221 66.6056C341.221 65.4215 340.607 64.5443 339.379 63.9742C338.195 63.3602 336.288 62.7023 333.656 62.0006C330.937 61.3428 328.7 60.663 326.946 59.9613C325.236 59.2595 323.744 58.185 322.473 56.7378C321.245 55.2905 320.631 53.3388 320.631 50.8828C320.631 48.8654 321.201 47.0234 322.341 45.3568C323.525 43.6903 325.192 42.3746 327.341 41.4097C329.534 40.4448 332.099 39.9624 335.038 39.9624C339.379 39.9624 342.844 41.0588 345.432 43.2517C348.019 45.4007 349.445 48.3172 349.708 52.0012H340.893C340.761 50.5539 340.147 49.4136 339.051 48.5803C337.998 47.7032 336.573 47.2646 334.774 47.2646C333.108 47.2646 331.814 47.5716 330.893 48.1856C330.016 48.7996 329.577 49.6548 329.577 50.7513C329.577 51.9793 330.191 52.9222 331.419 53.58C332.647 54.194 334.555 54.83 337.143 55.4878C339.774 56.1457 341.945 56.8255 343.656 57.5272C345.366 58.2289 346.835 59.3253 348.063 60.8165C349.335 62.2638 349.993 64.1935 350.037 66.6056C350.037 68.7107 349.445 70.5966 348.261 72.2632C347.12 73.9297 345.454 75.2455 343.261 76.2103C341.112 77.1313 338.59 77.5918 335.695 77.5918Z" fill="#46A758"/>
</svg>
